<svg xmlns="http://www.w3.org/2000/svg" viewBox="0 0 355.43 71.02"><defs><style>.cls-1{opacity:0.8;}.cls-2{fill:#282828;}.cls-3{fill:#fff;}.cls-4{fill:#7c7c7c;}.cls-5{fill:#333;}</style></defs><g id="Layer_2" data-name="Layer 2"><g id="CLOSED"><g class="cls-1"><rect x="4.43" y="2.44" width="351" height="68.59" rx="19"/></g><rect class="cls-2" x="1" y="1" width="349" height="62" rx="18"/><path class="cls-3" d="M332,2a17,17,0,0,1,17,17V45a17,17,0,0,1-17,17H19A17,17,0,0,1,2,45V19A17,17,0,0,1,19,2H332m0-2H19A19.06,19.06,0,0,0,0,19V45A19.06,19.06,0,0,0,19,64H332a19.06,19.06,0,0,0,19-19V19A19.06,19.06,0,0,0,332,0Z"/><rect x="313" y="14.56" width="28" height="37.24" rx="12"/><rect class="cls-4" x="312" y="14.15" width="26" height="35.24" rx="11"/><path class="cls-5" d="M327,15.15a10,10,0,0,1,10,10V38.39a10,10,0,0,1-10,10h-4a10,10,0,0,1-10-10V25.15a10,10,0,0,1,10-10h4m0-2h-4a12,12,0,0,0-12,12V38.39a12,12,0,0,0,12,12h4a12,12,0,0,0,12-12V25.15a12,12,0,0,0-12-12Z"/></g></g></svg>