<svg xmlns="http://www.w3.org/2000/svg" viewBox="0 0 355.43 71.02">
  <defs>
    <style>
      .shadow { opacity: 0.8; }
      .body { fill: #282828; }
      .outline { fill: #fff; }
    </style>
  </defs>
  <g id="Layer_2" data-name="Layer 2">
    <g id="CLOSED">
      <g class="shadow">
        <rect x="4.43" y="2.44" width="351" height="68.59" rx="19" />
      </g>
      <rect class="body" x="1" y="1" width="349" height="62" rx="18" />
      <path class="outline" d="M332,2a17,17,0,0,1,17,17V45a17,17,0,0,1-17,17H19A17,17,0,0,1,2,45V19A17,17,0,0,1,19,2H332m0-2H19A19.06,19.06,0,0,0,0,19V45A19.06,19.06,0,0,0,19,64H332a19.06,19.06,0,0,0,19-19V19A19.06,19.06,0,0,0,332,0Z" />
    </g>
  </g>
</svg>